 <svg xmlns="http://www.w3.org/2000/svg" width="264" height="60" fill="none">
          <g transform="scale(0.75)">
            <path
              fill="#232323"
              d="M25.251 14.728c2.484 1.977 3.726 4.853 3.726 8.628h-8.922c0-3.328-1.777-4.991-5.332-4.991a5.802 5.802 0 0 0-3.395.848 2.696 2.696 0 0 0-1.203 2.322 2.564 2.564 0 0 0 .735 1.92c.616.547 1.344.95 2.133 1.177.928.315 2.393.743 4.396 1.282a57.814 57.814 0 0 1 6.73 2.157 10.346 10.346 0 0 1 4.227 3.235c1.175 1.482 1.765 3.525 1.77 6.13a9.217 9.217 0 0 1-1.031 4.411 9.1 9.1 0 0 1-3.002 3.368c-2.692 1.96-6.323 2.937-10.892 2.933-4.8 0-8.532-1.022-11.198-3.065C1.327 43.04-.004 39.998 0 35.956h9.481a5.123 5.123 0 0 0 1.528 3.945c1.021.947 2.491 1.414 4.397 1.414a6.445 6.445 0 0 0 3.667-.874 2.77 2.77 0 0 0 .97-1.039c.227-.426.342-.904.33-1.388a3.15 3.15 0 0 0-.799-2.256 5.6 5.6 0 0 0-2.237-1.348c-.95-.335-2.543-.795-4.76-1.38a55.823 55.823 0 0 1-6.23-1.974 9.312 9.312 0 0 1-3.863-2.998C1.392 26.664.852 24.73.852 22.264a8.885 8.885 0 0 1 1.762-5.425 11.667 11.667 0 0 1 4.93-3.742 18.577 18.577 0 0 1 7.296-1.348c4.452.009 7.923 1.002 10.411 2.979Zm22.832 40.119a11.905 11.905 0 0 1-5.033 3.913 19.577 19.577 0 0 1-7.258 1.177 20.812 20.812 0 0 1-4.864-.54v-7.542a10.56 10.56 0 0 0 3.596.54 6.508 6.508 0 0 0 4.5-1.52 5.095 5.095 0 0 0 1.295-1.813 5.147 5.147 0 0 0 .403-2.198 9.296 9.296 0 0 0-.3-2.15c-.199-.812-.632-2.16-1.3-4.045l-9.592-27.83h9.989l3.466 11.455a220.424 220.424 0 0 1 3.733 14.35h.13c1.33-5.525 2.631-10.308 3.901-14.35L54.41 12.84h9.599L51.88 47.27a27.951 27.951 0 0 1-3.798 7.576Zm46.084-39.209c2.22 2.402 3.33 5.87 3.33 10.403v21.044h-9.332v-20.07c0-2.52-.527-4.4-1.567-5.663a5.395 5.395 0 0 0-1.965-1.455 5.339 5.339 0 0 0-2.399-.432 5.797 5.797 0 0 0-2.703.602 5.868 5.868 0 0 0-2.128 1.792c-1.223 1.596-1.834 3.897-1.834 6.905v18.328H66.25V12.836h8.727v4.314h.13a12.991 12.991 0 0 1 4.266-3.741 11.645 11.645 0 0 1 5.664-1.382c3.863 0 6.906 1.204 9.13 3.61Zm77.38 0c2.219 2.402 3.329 5.87 3.329 10.403v21.044h-9.325v-20.07c0-2.52-.527-4.4-1.567-5.663a5.395 5.395 0 0 0-1.966-1.455 5.336 5.336 0 0 0-2.398-.432 5.798 5.798 0 0 0-2.704.602 5.872 5.872 0 0 0-2.128 1.792c-1.222 1.596-1.833 3.897-1.833 6.905v18.328h-9.326V12.836h8.727v4.314h.13a13.06 13.06 0 0 1 4.266-3.741 11.65 11.65 0 0 1 5.665-1.382c3.862 0 6.906 1.204 9.13 3.61Zm22.451 39.209a11.948 11.948 0 0 1-5.033 3.913 19.641 19.641 0 0 1-7.264 1.177 20.894 20.894 0 0 1-4.864-.54v-7.542c1.162.386 2.38.568 3.603.54a6.487 6.487 0 0 0 4.493-1.52 5.1 5.1 0 0 0 1.295-1.813 5.145 5.145 0 0 0 .402-2.198 8.923 8.923 0 0 0-.299-2.15c-.199-.812-.633-2.16-1.3-4.045l-9.599-27.83h9.995l3.466 11.455a229.069 229.069 0 0 1 3.727 14.35h.136c1.336-5.525 2.647-10.308 3.935-14.35l3.661-11.455h9.592L197.822 47.27a27.94 27.94 0 0 1-3.824 7.576ZM260.043 15.6c2.115 2.385 3.171 5.866 3.167 10.443v21.044h-9.332v-20.07c0-2.52-.462-4.4-1.398-5.663a4.648 4.648 0 0 0-1.72-1.432 4.587 4.587 0 0 0-2.182-.455 5.06 5.06 0 0 0-2.656.653 5.137 5.137 0 0 0-1.942 1.945c-1.066 1.727-1.6 4.208-1.6 7.444v17.584h-9.331V26.36c0-2.192-.456-3.9-1.366-5.123a4.686 4.686 0 0 0-1.758-1.405 4.63 4.63 0 0 0-2.202-.417 5.06 5.06 0 0 0-2.656.653 5.137 5.137 0 0 0-1.942 1.945c-1.066 1.727-1.6 4.209-1.6 7.444v17.585H212.2V12.838h8.792v3.913h.137a12.156 12.156 0 0 1 4.129-3.57 11.521 11.521 0 0 1 5.261-1.152 12.014 12.014 0 0 1 6.1 1.487 9.824 9.824 0 0 1 3.96 4.38 14.384 14.384 0 0 1 4.552-4.38 12.245 12.245 0 0 1 6.263-1.487c3.659 0 6.542 1.19 8.649 3.571Zm-122.649-2.761h-33.848v34.228h33.848V12.84Z"
            />
          </g>
        </svg>
